<svg width="25" height="24" viewBox="0 0 25 24" fill="none" xmlns="http://www.w3.org/2000/svg">
<g id="li:clock">
<path id="Vector (Stroke)" fill-rule="evenodd" clip-rule="evenodd" d="M12.9004 3C7.92983 3 3.90039 7.02944 3.90039 12C3.90039 16.9706 7.92983 21 12.9004 21C17.871 21 21.9004 16.9706 21.9004 12C21.9004 7.02944 17.871 3 12.9004 3ZM1.90039 12C1.90039 5.92487 6.82526 1 12.9004 1C18.9755 1 23.9004 5.92487 23.9004 12C23.9004 18.0751 18.9755 23 12.9004 23C6.82526 23 1.90039 18.0751 1.90039 12Z" fill="#484C52"/>
<path id="Vector (Stroke)_2" fill-rule="evenodd" clip-rule="evenodd" d="M12.9004 5C13.4527 5 13.9004 5.44772 13.9004 6V11.382L17.3476 13.1056C17.8416 13.3526 18.0418 13.9532 17.7948 14.4472C17.5478 14.9412 16.9472 15.1414 16.4532 14.8944L12.4532 12.8944C12.1144 12.725 11.9004 12.3788 11.9004 12V6C11.9004 5.44772 12.3481 5 12.9004 5Z" fill="#484C52"/>
</g>
</svg>
