<svg width="25" height="24" viewBox="0 0 25 24" fill="none" xmlns="http://www.w3.org/2000/svg">
<g id="li:home">
<path id="Vector (Stroke)" fill-rule="evenodd" clip-rule="evenodd" d="M12.2845 1.21065C12.6456 0.929784 13.1513 0.929784 13.5124 1.21065L22.5124 8.21065C22.756 8.4001 22.8984 8.69141 22.8984 9V20C22.8984 20.7957 22.5824 21.5587 22.0198 22.1213C21.4571 22.6839 20.6941 23 19.8984 23H5.89844C5.10279 23 4.33973 22.6839 3.77712 22.1213C3.21451 21.5587 2.89844 20.7957 2.89844 20V9C2.89844 8.69141 3.04091 8.4001 3.2845 8.21065L12.2845 1.21065ZM4.89844 9.48908V20C4.89844 20.2652 5.00379 20.5196 5.19133 20.7071C5.37887 20.8946 5.63322 21 5.89844 21H19.8984C20.1637 21 20.418 20.8946 20.6055 20.7071C20.7931 20.5196 20.8984 20.2652 20.8984 20V9.48908L12.8984 3.26686L4.89844 9.48908Z" fill="#484C52"/>
<path id="Vector (Stroke)_2" fill-rule="evenodd" clip-rule="evenodd" d="M8.89844 12C8.89844 11.4477 9.34615 11 9.89844 11H15.8984C16.4507 11 16.8984 11.4477 16.8984 12V22C16.8984 22.5523 16.4507 23 15.8984 23C15.3462 23 14.8984 22.5523 14.8984 22V13H10.8984V22C10.8984 22.5523 10.4507 23 9.89844 23C9.34615 23 8.89844 22.5523 8.89844 22V12Z" fill="#484C52"/>
</g>
</svg>
