<svg width="25" height="24" viewBox="0 0 25 24" fill="none" xmlns="http://www.w3.org/2000/svg">
<g id="solar:box-outline">
<path id="Vector" fill-rule="evenodd" clip-rule="evenodd" d="M12.9004 1.25C12.2954 1.25 11.7384 1.4 11.1294 1.652C10.5404 1.896 9.85639 2.255 9.00539 2.702L6.93739 3.787C5.89239 4.335 5.05739 4.774 4.41039 5.205C3.74239 5.652 3.22639 6.122 2.85139 6.759C2.47739 7.394 2.30939 8.082 2.22839 8.901C2.15039 9.696 2.15039 10.673 2.15039 11.903V12.097C2.15039 13.327 2.15039 14.304 2.22839 15.099C2.30939 15.919 2.47839 16.606 2.85139 17.241C3.22639 17.878 3.74139 18.348 4.41139 18.795C5.05639 19.226 5.89239 19.665 6.93739 20.213L9.00539 21.298C9.85639 21.745 10.5404 22.104 11.1294 22.348C11.7394 22.6 12.2954 22.75 12.9004 22.75C13.5054 22.75 14.0624 22.6 14.6714 22.348C15.2604 22.104 15.9444 21.745 16.7954 21.298L18.8634 20.214C19.9084 19.665 20.7434 19.226 21.3894 18.795C22.0594 18.348 22.5744 17.878 22.9494 17.241C23.3234 16.606 23.4914 15.918 23.5724 15.099C23.6504 14.304 23.6504 13.327 23.6504 12.098V11.902C23.6504 10.673 23.6504 9.696 23.5724 8.901C23.4914 8.081 23.3224 7.394 22.9494 6.759C22.5744 6.122 22.0594 5.652 21.3894 5.205C20.7444 4.774 19.9084 4.335 18.8634 3.787L16.7954 2.702C15.9444 2.255 15.2604 1.896 14.6714 1.652C14.0614 1.4 13.5054 1.25 12.9004 1.25ZM9.67039 4.046C10.5604 3.579 11.1844 3.253 11.7024 3.039C12.2064 2.83 12.5614 2.75 12.9004 2.75C13.2404 2.75 13.5944 2.83 14.0984 3.039C14.6164 3.253 15.2394 3.579 16.1294 4.046L18.1294 5.096C19.2194 5.667 19.9844 6.07 20.5574 6.452C20.8394 6.641 21.0604 6.816 21.2404 6.992L17.9094 8.657L9.40939 4.183L9.67039 4.046ZM7.84539 5.004L7.67139 5.096C6.58139 5.667 5.81639 6.07 5.24439 6.452C5.00032 6.61022 4.77165 6.79102 4.56139 6.992L12.9004 11.162L16.2574 9.482L8.05139 5.164C7.97389 5.12313 7.90417 5.06897 7.84539 5.004ZM3.83839 8.307C3.78839 8.521 3.74939 8.764 3.72139 9.047C3.65139 9.761 3.65039 10.664 3.65039 11.941V12.058C3.65039 13.336 3.65039 14.239 3.72139 14.952C3.79039 15.649 3.92139 16.1 4.14439 16.48C4.36639 16.857 4.68739 17.176 5.24439 17.548C5.81639 17.93 6.58139 18.333 7.67139 18.904L9.67139 19.954C10.5614 20.421 11.1844 20.747 11.7024 20.961C11.8664 21.029 12.0134 21.083 12.1504 21.126V12.463L3.83839 8.307ZM13.6504 21.125C13.7874 21.083 13.9344 21.029 14.0984 20.961C14.6164 20.747 15.2394 20.421 16.1294 19.954L18.1294 18.904C19.2194 18.332 19.9844 17.93 20.5574 17.548C21.1134 17.176 21.4344 16.857 21.6574 16.48C21.8804 16.1 22.0104 15.65 22.0794 14.952C22.1494 14.239 22.1504 13.336 22.1504 12.059V11.942C22.1504 10.664 22.1504 9.761 22.0794 9.048C22.0569 8.79901 22.0178 8.55179 21.9624 8.308L18.6504 9.963V13C18.6504 13.1989 18.5714 13.3897 18.4307 13.5303C18.2901 13.671 18.0993 13.75 17.9004 13.75C17.7015 13.75 17.5107 13.671 17.3701 13.5303C17.2294 13.3897 17.1504 13.1989 17.1504 13V10.714L13.6504 12.464V21.125Z" fill="#484C52"/>
</g>
</svg>
