<svg width="25" height="24" viewBox="0 0 25 24" fill="none" xmlns="http://www.w3.org/2000/svg">
<g id="solar:settings-outline">
<g id="Group">
<path id="Vector" fill-rule="evenodd" clip-rule="evenodd" d="M12.9004 8.25C11.9058 8.25 10.952 8.64509 10.2487 9.34835C9.54548 10.0516 9.15039 11.0054 9.15039 12C9.15039 12.9946 9.54548 13.9484 10.2487 14.6517C10.952 15.3549 11.9058 15.75 12.9004 15.75C13.895 15.75 14.8488 15.3549 15.552 14.6517C16.2553 13.9484 16.6504 12.9946 16.6504 12C16.6504 11.0054 16.2553 10.0516 15.552 9.34835C14.8488 8.64509 13.895 8.25 12.9004 8.25ZM10.6504 12C10.6504 11.4033 10.8874 10.831 11.3094 10.409C11.7314 9.98705 12.3037 9.75 12.9004 9.75C13.4971 9.75 14.0694 9.98705 14.4914 10.409C14.9133 10.831 15.1504 11.4033 15.1504 12C15.1504 12.5967 14.9133 13.169 14.4914 13.591C14.0694 14.0129 13.4971 14.25 12.9004 14.25C12.3037 14.25 11.7314 14.0129 11.3094 13.591C10.8874 13.169 10.6504 12.5967 10.6504 12Z" fill="#484C52"/>
<path id="Vector_2" fill-rule="evenodd" clip-rule="evenodd" d="M12.8761 1.25C12.4311 1.25 12.0601 1.25 11.7561 1.27C11.4454 1.28294 11.1389 1.34714 10.8491 1.46C10.5154 1.59809 10.2121 1.80057 9.95663 2.05589C9.70114 2.3112 9.49846 2.61434 9.36014 2.948C9.21514 3.298 9.17614 3.668 9.16014 4.07C9.15854 4.21702 9.11962 4.36123 9.04703 4.48909C8.97444 4.61695 8.87057 4.72428 8.74514 4.801C8.61602 4.8715 8.47111 4.90803 8.324 4.90716C8.17689 4.90628 8.03241 4.86803 7.90414 4.796C7.54814 4.608 7.20814 4.457 6.83214 4.407C6.47409 4.3599 6.11026 4.38379 5.76144 4.4773C5.41261 4.57081 5.08563 4.73212 4.79914 4.952C4.55692 5.14688 4.34846 5.38034 4.18214 5.643C4.01214 5.897 3.82614 6.218 3.60414 6.603L3.57914 6.647C3.35614 7.032 3.17114 7.353 3.03714 7.627C2.89714 7.913 2.78714 8.195 2.74714 8.507C2.65174 9.22999 2.84742 9.96127 3.29114 10.54C3.52214 10.841 3.82314 11.06 4.16314 11.274C4.2899 11.3489 4.39551 11.4549 4.47004 11.5819C4.54456 11.7089 4.58555 11.8528 4.58914 12C4.58555 12.1472 4.54456 12.2911 4.47004 12.4181C4.39551 12.5451 4.2899 12.6511 4.16314 12.726C3.82314 12.94 3.52314 13.159 3.29114 13.46C3.07126 13.7465 2.90996 14.0735 2.81645 14.4223C2.72293 14.7711 2.69904 15.1349 2.74614 15.493C2.78714 15.805 2.89614 16.087 3.03614 16.373C3.17114 16.647 3.35614 16.968 3.57914 17.353L3.60414 17.397C3.82614 17.782 4.01214 18.103 4.18214 18.357C4.35914 18.62 4.54914 18.857 4.79914 19.047C5.08555 19.2671 5.41251 19.4285 5.76133 19.5222C6.11016 19.6159 6.47402 19.64 6.83214 19.593C7.20814 19.543 7.54814 19.393 7.90414 19.204C8.03226 19.1321 8.17656 19.0939 8.3235 19.093C8.47043 19.0921 8.61518 19.1286 8.74414 19.199C8.87026 19.2751 8.97479 19.3823 9.04779 19.5102C9.12078 19.6382 9.1598 19.7827 9.16114 19.93C9.17614 20.332 9.21514 20.702 9.36114 21.052C9.49923 21.3857 9.70172 21.689 9.95703 21.9445C10.2123 22.2 10.5155 22.4027 10.8491 22.541C11.1391 22.661 11.4391 22.708 11.7561 22.729C12.0601 22.75 12.4311 22.75 12.8761 22.75H12.9261C13.3711 22.75 13.7421 22.75 14.0461 22.73C14.3641 22.708 14.6631 22.661 14.9531 22.54C15.2869 22.4019 15.5902 22.1994 15.8457 21.9441C16.1011 21.6888 16.3038 21.3857 16.4421 21.052C16.5871 20.702 16.6261 20.332 16.6421 19.93C16.6436 19.7828 16.6824 19.6384 16.755 19.5103C16.8276 19.3823 16.9316 19.2748 17.0571 19.198C17.1863 19.1276 17.3313 19.0913 17.4784 19.0923C17.6255 19.0934 17.77 19.1318 17.8981 19.204C18.2541 19.392 18.5941 19.543 18.9701 19.592C19.6931 19.6874 20.4244 19.4917 21.0031 19.048C21.2531 18.856 21.4431 18.62 21.6201 18.357C21.7901 18.103 21.9761 17.782 22.1981 17.397L22.2231 17.353C22.4461 16.968 22.6311 16.647 22.7651 16.373C22.9051 16.087 23.0151 15.804 23.0551 15.493C23.1505 14.77 22.9549 14.0387 22.5111 13.46C22.2801 13.159 21.9791 12.94 21.6391 12.726C21.5124 12.6511 21.4068 12.5451 21.3322 12.4181C21.2577 12.2911 21.2167 12.1472 21.2131 12C21.2131 11.722 21.3651 11.446 21.6391 11.274C21.9791 11.06 22.2791 10.841 22.5111 10.54C22.731 10.2535 22.8923 9.92653 22.9858 9.5777C23.0794 9.22888 23.1032 8.86506 23.0561 8.507C23.0085 8.19971 22.9106 7.90238 22.7661 7.627C22.5954 7.29475 22.4143 6.96792 22.2231 6.647L22.1981 6.603C22.0155 6.27709 21.8227 5.95693 21.6201 5.643C21.4538 5.38062 21.2454 5.14749 21.0031 4.953C20.7167 4.73294 20.3898 4.57146 20.041 4.47778C19.6921 4.38409 19.3283 4.36004 18.9701 4.407C18.5941 4.457 18.2541 4.607 17.8981 4.796C17.77 4.86786 17.6257 4.90601 17.4788 4.90688C17.3319 4.90776 17.1871 4.87132 17.0581 4.801C16.9323 4.72452 16.8281 4.6173 16.7551 4.48942C16.6822 4.36154 16.643 4.21721 16.6411 4.07C16.6261 3.668 16.5871 3.298 16.4411 2.948C16.3031 2.61425 16.1006 2.31097 15.8453 2.05549C15.5899 1.8 15.2868 1.59731 14.9531 1.459C14.6631 1.339 14.3631 1.292 14.0461 1.271C13.7421 1.25 13.3711 1.25 12.9261 1.25H12.8761ZM11.4231 2.845C11.5001 2.813 11.6171 2.784 11.8581 2.767C12.1051 2.75 12.4251 2.75 12.9011 2.75C13.3771 2.75 13.6971 2.75 13.9441 2.767C14.1851 2.784 14.3021 2.813 14.3791 2.845C14.6861 2.972 14.9291 3.215 15.0561 3.522C15.0961 3.618 15.1291 3.769 15.1421 4.126C15.1721 4.918 15.5811 5.681 16.3071 6.1C17.0331 6.52 17.8981 6.492 18.5991 6.122C18.9151 5.955 19.0621 5.908 19.1661 5.895C19.4947 5.85158 19.8271 5.94043 20.0901 6.142C20.1561 6.193 20.2401 6.28 20.3751 6.48C20.5141 6.686 20.6741 6.963 20.9121 7.375C21.1501 7.787 21.3091 8.065 21.4181 8.287C21.5251 8.504 21.5581 8.62 21.5681 8.703C21.6116 9.03157 21.5227 9.36392 21.3211 9.627C21.2571 9.71 21.1431 9.814 20.8411 10.004C20.1691 10.426 19.7131 11.162 19.7131 12C19.7131 12.838 20.1691 13.574 20.8411 13.996C21.1431 14.186 21.2571 14.29 21.3211 14.373C21.5231 14.636 21.6111 14.968 21.5681 15.297C21.5581 15.38 21.5241 15.497 21.4181 15.713C21.3091 15.936 21.1501 16.213 20.9121 16.625C20.6741 17.037 20.5131 17.314 20.3751 17.52C20.2401 17.72 20.1561 17.807 20.0901 17.858C19.8271 18.0596 19.4947 18.1484 19.1661 18.105C19.0621 18.092 18.9161 18.045 18.5991 17.878C17.8991 17.508 17.0331 17.48 16.3071 17.899C15.5811 18.319 15.1721 19.082 15.1421 19.874C15.1291 20.231 15.0961 20.382 15.0561 20.478C14.9933 20.6298 14.9012 20.7677 14.785 20.8839C14.6689 21.0001 14.5309 21.0922 14.3791 21.155C14.3021 21.187 14.1851 21.216 13.9441 21.233C13.6971 21.25 13.3771 21.25 12.9011 21.25C12.4251 21.25 12.1051 21.25 11.8581 21.233C11.6171 21.216 11.5001 21.187 11.4231 21.155C11.2713 21.0922 11.1334 21.0001 11.0173 20.8839C10.9011 20.7677 10.809 20.6298 10.7461 20.478C10.7061 20.382 10.6731 20.231 10.6601 19.874C10.6301 19.082 10.2211 18.319 9.49514 17.9C8.76914 17.48 7.90414 17.508 7.20314 17.878C6.88714 18.045 6.74014 18.092 6.63614 18.105C6.30758 18.1484 5.97522 18.0596 5.71214 17.858C5.64614 17.807 5.56214 17.72 5.42714 17.52C5.23905 17.2272 5.05997 16.9287 4.89014 16.625C4.65214 16.213 4.49314 15.935 4.38414 15.713C4.27714 15.496 4.24414 15.38 4.23414 15.297C4.19073 14.9684 4.27957 14.6361 4.48114 14.373C4.54514 14.29 4.65914 14.186 4.96114 13.996C5.63314 13.574 6.08914 12.838 6.08914 12C6.08914 11.162 5.63314 10.426 4.96114 10.004C4.65914 9.814 4.54514 9.71 4.48114 9.627C4.27957 9.36392 4.19073 9.03157 4.23414 8.703C4.24414 8.62 4.27814 8.503 4.38414 8.287C4.49314 8.064 4.65214 7.787 4.89014 7.375C5.12814 6.963 5.28914 6.686 5.42714 6.48C5.56214 6.28 5.64614 6.193 5.71214 6.142C5.97522 5.94043 6.30758 5.85158 6.63614 5.895C6.74014 5.908 6.88614 5.955 7.20314 6.122C7.90314 6.492 8.76914 6.52 9.49514 6.1C10.2211 5.681 10.6301 4.918 10.6601 4.126C10.6731 3.769 10.7061 3.618 10.7461 3.522C10.8731 3.215 11.1161 2.972 11.4231 2.845Z" fill="#484C52"/>
</g>
</g>
</svg>
