<svg width="20" height="20" viewBox="0 0 20 20" fill="none" xmlns="http://www.w3.org/2000/svg">
<g id="basil:download-solid">
<path id="Vector" fill-rule="evenodd" clip-rule="evenodd" d="M4.16797 13.5415C4.33373 13.5415 4.4927 13.6074 4.60991 13.7246C4.72712 13.8418 4.79297 14.0007 4.79297 14.1665V15.8332C4.79297 15.9482 4.8863 16.0415 5.0013 16.0415H15.0013C15.0566 16.0415 15.1095 16.0196 15.1486 15.9805C15.1877 15.9414 15.2096 15.8884 15.2096 15.8332V14.1665C15.2096 14.0007 15.2755 13.8418 15.3927 13.7246C15.5099 13.6074 15.6689 13.5415 15.8346 13.5415C16.0004 13.5415 16.1594 13.6074 16.2766 13.7246C16.3938 13.8418 16.4596 14.0007 16.4596 14.1665V15.8332C16.4596 16.2199 16.306 16.5909 16.0325 16.8644C15.759 17.1379 15.3881 17.2915 15.0013 17.2915H5.0013C4.61453 17.2915 4.2436 17.1379 3.9701 16.8644C3.69661 16.5909 3.54297 16.2199 3.54297 15.8332V14.1665C3.54297 14.0007 3.60882 13.8418 3.72603 13.7246C3.84324 13.6074 4.00221 13.5415 4.16797 13.5415Z" fill="#FA6164"/>
<path id="Vector_2" d="M8.94642 3.125C8.73962 3.12506 8.54035 3.20262 8.38793 3.34239C8.23552 3.48216 8.14102 3.67398 8.12309 3.88C7.99485 5.34035 7.97202 6.80804 8.05476 8.27167C7.84892 8.2825 7.64392 8.29667 7.43809 8.31083L6.19642 8.40167C6.08707 8.40968 5.98167 8.44595 5.89054 8.50691C5.79941 8.56788 5.72567 8.65147 5.67653 8.74949C5.62739 8.84751 5.60455 8.95661 5.61023 9.06611C5.6159 9.17561 5.64991 9.28175 5.70892 9.37417C6.59383 10.7593 7.73409 11.9634 9.06892 12.9225L9.56642 13.28C9.69223 13.3703 9.84321 13.4189 9.99809 13.4189C10.153 13.4189 10.304 13.3703 10.4298 13.28L10.9273 12.9225C12.2621 11.9634 13.4023 10.7593 14.2873 9.37417C14.3463 9.28175 14.3803 9.17561 14.386 9.06611C14.3916 8.95661 14.3688 8.84751 14.3197 8.74949C14.2705 8.65147 14.1968 8.56788 14.1056 8.50691C14.0145 8.44595 13.9091 8.40968 13.7998 8.40167L12.5581 8.31083C12.3527 8.29597 12.1471 8.28292 11.9414 8.27167C12.0244 6.80806 12.0019 5.34037 11.8739 3.88C11.856 3.67383 11.7614 3.4819 11.6088 3.34211C11.4562 3.20232 11.2567 3.12485 11.0498 3.125H8.94642Z" fill="#FA6164"/>
</g>
</svg>
