<svg width="40" height="40" viewBox="0 0 40 40" fill="none" xmlns="http://www.w3.org/2000/svg">
<g id="basil:download-solid">
<path id="Vector" fill-rule="evenodd" clip-rule="evenodd" d="M8.33203 27.083C8.66355 27.083 8.98149 27.2147 9.21591 27.4491C9.45034 27.6835 9.58203 28.0015 9.58203 28.333V31.6663C9.58203 31.8963 9.7687 32.083 9.9987 32.083H29.9987C30.1092 32.083 30.2152 32.0391 30.2933 31.961C30.3715 31.8828 30.4154 31.7768 30.4154 31.6663V28.333C30.4154 28.0015 30.5471 27.6835 30.7815 27.4491C31.0159 27.2147 31.3338 27.083 31.6654 27.083C31.9969 27.083 32.3148 27.2147 32.5492 27.4491C32.7837 27.6835 32.9154 28.0015 32.9154 28.333V31.6663C32.9154 32.4399 32.6081 33.1818 32.0611 33.7287C31.5141 34.2757 30.7722 34.583 29.9987 34.583H9.9987C9.22515 34.583 8.48328 34.2757 7.9363 33.7287C7.38932 33.1818 7.08203 32.4399 7.08203 31.6663V28.333C7.08203 28.0015 7.21373 27.6835 7.44815 27.4491C7.68257 27.2147 8.00051 27.083 8.33203 27.083Z" fill="white"/>
<path id="Vector_2" d="M17.8968 6.25C17.4832 6.25011 17.0846 6.40524 16.7798 6.68478C16.4749 6.96431 16.2859 7.34796 16.2501 7.76C15.9936 10.6807 15.9479 13.6161 16.1134 16.5433C15.7018 16.565 15.2918 16.5933 14.8801 16.6217L12.3968 16.8033C12.178 16.8194 11.9672 16.8919 11.785 17.0138C11.6027 17.1358 11.4552 17.3029 11.357 17.499C11.2587 17.695 11.213 17.9132 11.2244 18.1322C11.2357 18.3512 11.3037 18.5635 11.4218 18.7483C13.1916 21.5185 15.4721 23.9269 18.1418 25.845L19.1368 26.56C19.3884 26.7407 19.6903 26.8379 20.0001 26.8379C20.3099 26.8379 20.6118 26.7407 20.8634 26.56L21.8584 25.845C24.5281 23.9269 26.8086 21.5185 28.5784 18.7483C28.6964 18.5635 28.7645 18.3512 28.7758 18.1322C28.7872 17.9132 28.7415 17.695 28.6432 17.499C28.5449 17.3029 28.3975 17.1358 28.2152 17.0138C28.0329 16.8919 27.8221 16.8194 27.6034 16.8033L25.1201 16.6217C24.7092 16.5919 24.2981 16.5658 23.8868 16.5433C24.0528 13.6161 24.0077 10.6807 23.7518 7.76C23.7159 7.34767 23.5266 6.96379 23.2215 6.68421C22.9163 6.40464 22.5173 6.24969 22.1034 6.25H17.8968Z" fill="white"/>
</g>
</svg>
