<svg width="40" height="40" viewBox="0 0 40 40" fill="none" xmlns="http://www.w3.org/2000/svg">
<g id="basil:download-solid">
<path id="Vector" fill-rule="evenodd" clip-rule="evenodd" d="M31.6641 26.0049C31.3325 26.0049 31.0146 26.1366 30.7802 26.371C30.5458 26.6054 30.4141 26.9234 30.4141 27.2549V30.5882C30.4141 30.8182 30.2274 31.0049 29.9974 31.0049H9.99739C9.88689 31.0049 9.78091 30.961 9.70277 30.8828C9.62463 30.8047 9.58073 30.6987 9.58073 30.5882V27.2549C9.58073 26.9234 9.44903 26.6054 9.21461 26.371C8.98019 26.1366 8.66225 26.0049 8.33073 26.0049C7.99921 26.0049 7.68126 26.1366 7.44684 26.371C7.21242 26.6054 7.08073 26.9234 7.08073 27.2549V30.5882C7.08073 31.3618 7.38802 32.1036 7.935 32.6506C8.48198 33.1976 9.22385 33.5049 9.99739 33.5049H29.9974C30.7709 33.5049 31.5128 33.1976 32.0598 32.6506C32.6068 32.1036 32.9141 31.3618 32.9141 30.5882V27.2549C32.9141 26.9234 32.7824 26.6054 32.5479 26.371C32.3135 26.1366 31.9956 26.0049 31.6641 26.0049Z" fill="white"/>
<path id="Vector_2" d="M17.8968 26.0049C17.4832 26.0048 17.0846 25.8496 16.7798 25.5701C16.4749 25.2906 16.2859 24.9069 16.2501 24.4949C15.9936 21.5742 15.9479 18.6388 16.1134 15.7116C15.7018 15.6899 15.2918 15.6616 14.8801 15.6332L12.3968 15.4516C12.178 15.4355 11.9672 15.363 11.785 15.2411C11.6027 15.1191 11.4552 14.9519 11.357 14.7559C11.2587 14.5599 11.213 14.3417 11.2244 14.1227C11.2357 13.9037 11.3037 13.6914 11.4218 13.5066C13.1916 10.7363 15.4721 8.328 18.1418 6.40989L19.1368 5.69489C19.3884 5.51419 19.6903 5.41699 20.0001 5.41699C20.3099 5.41699 20.6118 5.51419 20.8634 5.69489L21.8584 6.40989C24.5281 8.32803 26.8086 10.7364 28.5784 13.5066C28.6964 13.6914 28.7645 13.9037 28.7758 14.1227C28.7872 14.3417 28.7415 14.5599 28.6432 14.7559C28.5449 14.9519 28.3975 15.1191 28.2152 15.2411C28.0329 15.363 27.8221 15.4355 27.6034 15.4516L25.1201 15.6332C24.7092 15.6629 24.2981 15.689 23.8868 15.7116C24.0528 18.6388 24.0077 21.5741 23.7518 24.4949C23.7159 24.9072 23.5266 25.2911 23.2215 25.5707C22.9163 25.8502 22.5173 26.0052 22.1034 26.0049H17.8968Z" fill="white"/>
</g>
</svg>
