<svg width="20" height="20" viewBox="0 0 20 20" fill="none" xmlns="http://www.w3.org/2000/svg">
<g id="basil:download-solid">
<path id="Vector" fill-rule="evenodd" clip-rule="evenodd" d="M4.16797 6.45833C4.33373 6.45833 4.4927 6.39248 4.60991 6.27527C4.72712 6.15806 4.79297 5.99909 4.79297 5.83333V4.16666C4.79297 4.05166 4.8863 3.95833 5.0013 3.95833H15.0013C15.0566 3.95833 15.1095 3.98028 15.1486 4.01935C15.1877 4.05842 15.2096 4.11141 15.2096 4.16666V5.83333C15.2096 5.99909 15.2755 6.15806 15.3927 6.27527C15.5099 6.39248 15.6689 6.45833 15.8346 6.45833C16.0004 6.45833 16.1594 6.39248 16.2766 6.27527C16.3938 6.15806 16.4596 5.99909 16.4596 5.83333V4.16666C16.4596 3.77989 16.306 3.40896 16.0325 3.13546C15.759 2.86197 15.3881 2.70833 15.0013 2.70833H5.0013C4.61453 2.70833 4.2436 2.86197 3.9701 3.13546C3.69661 3.40896 3.54297 3.77989 3.54297 4.16666V5.83333C3.54297 5.99909 3.60882 6.15806 3.72603 6.27527C3.84324 6.39248 4.00221 6.45833 4.16797 6.45833Z" fill="#51A4F8"/>
<path id="Vector_2" d="M8.94642 16.875C8.73962 16.8749 8.54035 16.7974 8.38793 16.6576C8.23552 16.5178 8.14102 16.326 8.12309 16.12C7.99485 14.6597 7.97202 13.192 8.05476 11.7283C7.84892 11.7175 7.64392 11.7033 7.43809 11.6892L6.19642 11.5983C6.08707 11.5903 5.98167 11.5541 5.89054 11.4931C5.79941 11.4321 5.72567 11.3485 5.67653 11.2505C5.62739 11.1525 5.60455 11.0434 5.61023 10.9339C5.6159 10.8244 5.64991 10.7182 5.70892 10.6258C6.59383 9.24073 7.73409 8.03656 9.06892 7.0775L9.56642 6.72C9.69223 6.62965 9.84321 6.58105 9.99809 6.58105C10.153 6.58105 10.304 6.62965 10.4298 6.72L10.9273 7.0775C12.2621 8.03657 13.4023 9.24074 14.2873 10.6258C14.3463 10.7182 14.3803 10.8244 14.386 10.9339C14.3916 11.0434 14.3688 11.1525 14.3197 11.2505C14.2705 11.3485 14.1968 11.4321 14.1056 11.4931C14.0145 11.5541 13.9091 11.5903 13.7998 11.5983L12.5581 11.6892C12.3527 11.704 12.1471 11.7171 11.9414 11.7283C12.0244 13.1919 12.0019 14.6596 11.8739 16.12C11.856 16.3262 11.7614 16.5181 11.6088 16.6579C11.4562 16.7977 11.2567 16.8752 11.0498 16.875H8.94642Z" fill="#51A4F8"/>
</g>
</svg>
