<svg width="40" height="40" viewBox="0 0 40 40" fill="none" xmlns="http://www.w3.org/2000/svg">
<g id="pepicons-pop:sort">
<g id="Group">
<path id="Vector" fill-rule="evenodd" clip-rule="evenodd" d="M20.5856 15.4142C20.2106 15.0391 20 14.5305 20 14.0002C20 13.4698 20.2106 12.9612 20.5856 12.5862L26.5856 6.58616C26.7701 6.39514 26.9908 6.24278 27.2348 6.13796C27.4788 6.03314 27.7412 5.97797 28.0068 5.97566C28.2723 5.97335 28.5357 6.02396 28.7815 6.12452C29.0273 6.22508 29.2506 6.37359 29.4384 6.56137C29.6261 6.74916 29.7747 6.97246 29.8752 7.21825C29.9758 7.46405 30.0264 7.72741 30.0241 7.99296C30.0218 8.25852 29.9666 8.52096 29.8618 8.76497C29.757 9.00898 29.6046 9.22967 29.4136 9.41416L23.4136 15.4142C23.0385 15.7891 22.5299 15.9997 21.9996 15.9997C21.4692 15.9997 20.9606 15.7891 20.5856 15.4142Z" fill="white"/>
<path id="Vector_2" fill-rule="evenodd" clip-rule="evenodd" d="M35.4129 15.4138C35.0378 15.7888 34.5292 15.9994 33.9989 15.9994C33.4685 15.9994 32.9599 15.7888 32.5849 15.4138L26.5849 9.41384C26.2205 9.03663 26.019 8.53143 26.0235 8.00704C26.0281 7.48264 26.2384 6.98102 26.6092 6.6102C26.98 6.23938 27.4817 6.02905 28.0061 6.02449C28.5305 6.01993 29.0357 6.22152 29.4129 6.58584L35.4129 12.5858C35.7878 12.9609 35.9984 13.4695 35.9984 13.9998C35.9984 14.5302 35.7878 15.0388 35.4129 15.4138Z" fill="white"/>
<path id="Vector_3" fill-rule="evenodd" clip-rule="evenodd" d="M27.9989 10C28.5293 10 29.038 10.2107 29.4131 10.5858C29.7881 10.9609 29.9989 11.4696 29.9989 12V28C29.9989 28.5304 29.7881 29.0391 29.4131 29.4142C29.038 29.7893 28.5293 30 27.9989 30C27.4684 30 26.9597 29.7893 26.5846 29.4142C26.2096 29.0391 25.9989 28.5304 25.9989 28V12C25.9989 11.4696 26.2096 10.9609 26.5846 10.5858C26.9597 10.2107 27.4684 10 27.9989 10ZM19.4129 24.586C19.7878 24.9611 19.9984 25.4697 19.9984 26C19.9984 26.5303 19.7878 27.0389 19.4129 27.414L13.4129 33.414C13.0357 33.7783 12.5305 33.9799 12.0061 33.9753C11.4817 33.9708 10.98 33.7605 10.6092 33.3896C10.2384 33.0188 10.0281 32.5172 10.0235 31.9928C10.019 31.4684 10.2205 30.9632 10.5849 30.586L16.5849 24.586C16.9599 24.2111 17.4685 24.0004 17.9989 24.0004C18.5292 24.0004 19.0378 24.2111 19.4129 24.586Z" fill="white"/>
<path id="Vector_4" fill-rule="evenodd" clip-rule="evenodd" d="M4.58557 24.5865C4.96063 24.2116 5.46924 24.001 5.99957 24.001C6.5299 24.001 7.03852 24.2116 7.41357 24.5865L13.4136 30.5865C13.6046 30.771 13.757 30.9917 13.8618 31.2357C13.9666 31.4797 14.0218 31.7422 14.0241 32.0077C14.0264 32.2733 13.9758 32.5367 13.8752 32.7825C13.7747 33.0282 13.6261 33.2516 13.4384 33.4393C13.2506 33.6271 13.0273 33.7756 12.7815 33.8762C12.5357 33.9768 12.2723 34.0274 12.0068 34.0251C11.7412 34.0227 11.4788 33.9676 11.2348 33.8628C10.9908 33.7579 10.7701 33.6056 10.5856 33.4146L4.58557 27.4145C4.21063 27.0395 4 26.5309 4 26.0005C4 25.4702 4.21063 24.9616 4.58557 24.5865Z" fill="white"/>
<path id="Vector_5" fill-rule="evenodd" clip-rule="evenodd" d="M12 30C11.4696 30 10.9609 29.7893 10.5858 29.4142C10.2107 29.0391 10 28.5304 10 28V12C10 11.4696 10.2107 10.9609 10.5858 10.5858C10.9609 10.2107 11.4696 10 12 10C12.5304 10 13.0391 10.2107 13.4142 10.5858C13.7893 10.9609 14 11.4696 14 12V28C14 28.5304 13.7893 29.0391 13.4142 29.4142C13.0391 29.7893 12.5304 30 12 30Z" fill="white"/>
</g>
</g>
</svg>
