<svg width="25" height="24" viewBox="0 0 25 24" fill="none" xmlns="http://www.w3.org/2000/svg">
<g id="mingcute:transfer-line" clip-path="url(#clip0_857_2945)">
<g id="Group">
<path id="Vector" d="M20.9012 14C21.1561 14.0003 21.4013 14.0979 21.5866 14.2728C21.7719 14.4478 21.8835 14.6869 21.8984 14.9414C21.9133 15.1958 21.8306 15.4464 21.667 15.6418C21.5034 15.8373 21.2713 15.9629 21.0182 15.993L20.9012 16H7.31524L9.60824 18.293C9.78758 18.4729 9.89171 18.7144 9.89946 18.9684C9.90722 19.2223 9.81802 19.4697 9.64999 19.6603C9.48195 19.8508 9.24768 19.9703 8.99476 19.9944C8.74184 20.0185 8.48923 19.9454 8.28824 19.79L8.19424 19.707L4.36424 15.877C3.69924 15.213 4.12524 14.094 5.02724 14.006L5.14224 14H20.9012ZM16.1942 4.29298C16.3664 4.12081 16.5955 4.01738 16.8386 4.00209C17.0816 3.98681 17.3218 4.06073 17.5142 4.20998L17.6082 4.29298L21.4382 8.12298C22.1032 8.78698 21.6772 9.90598 20.7752 9.99398L20.6602 9.99998H4.90124C4.64636 9.9997 4.4012 9.9021 4.21587 9.72714C4.03053 9.55217 3.919 9.31303 3.90406 9.05859C3.88913 8.80415 3.97191 8.5536 4.1355 8.35815C4.29909 8.1627 4.53114 8.03709 4.78424 8.00698L4.90124 7.99998H18.4872L16.1942 5.70698C16.0068 5.51946 15.9014 5.26515 15.9014 4.99998C15.9014 4.73482 16.0068 4.48051 16.1942 4.29298Z" fill="#484C52"/>
</g>
</g>
<defs>
<clipPath id="clip0_857_2945">
<rect width="24" height="24" fill="white" transform="translate(0.900391)"/>
</clipPath>
</defs>
</svg>
